<?xml version="1.0" standalone="no"?>
<svg xmlns:xlink="http://www.w3.org/1999/xlink" id="wave" style="transform:rotate(0deg); transition: 0.3s" viewBox="0 0 1440 490" version="1.1" xmlns="http://www.w3.org/2000/svg"><defs><linearGradient id="sw-gradient-0" x1="0" x2="0" y1="1" y2="0"><stop stop-color="rgba(101.725, 243, 62, 1)" offset="0%"/><stop stop-color="rgba(97.614, 11, 255, 1)" offset="100%"/></linearGradient></defs><path style="transform:translate(0, 0px); opacity:1" fill="url(#sw-gradient-0)" d="M0,147L102.9,392L205.7,245L308.6,0L411.4,441L514.3,294L617.1,441L720,245L822.9,196L925.7,392L1028.6,98L1131.4,245L1234.3,0L1337.1,49L1440,294L1542.9,245L1645.7,196L1748.6,441L1851.4,147L1954.3,49L2057.1,441L2160,392L2262.9,343L2365.7,196L2468.6,294L2468.6,490L2365.7,490L2262.9,490L2160,490L2057.1,490L1954.3,490L1851.4,490L1748.6,490L1645.7,490L1542.9,490L1440,490L1337.1,490L1234.3,490L1131.4,490L1028.6,490L925.7,490L822.9,490L720,490L617.1,490L514.3,490L411.4,490L308.6,490L205.7,490L102.9,490L0,490Z"/><defs><linearGradient id="sw-gradient-1" x1="0" x2="0" y1="1" y2="0"><stop stop-color="rgba(107.857, 243, 62, 1)" offset="0%"/><stop stop-color="rgba(11, 255, 255, 1)" offset="100%"/></linearGradient></defs><path style="transform:translate(0, 50px); opacity:0.9" fill="url(#sw-gradient-1)" d="M0,392L102.9,147L205.7,147L308.6,147L411.4,196L514.3,245L617.1,196L720,441L822.9,245L925.7,98L1028.6,49L1131.4,294L1234.3,441L1337.1,196L1440,196L1542.9,49L1645.7,441L1748.6,343L1851.4,343L1954.3,441L2057.1,49L2160,245L2262.9,98L2365.7,392L2468.6,49L2468.6,490L2365.7,490L2262.9,490L2160,490L2057.1,490L1954.3,490L1851.4,490L1748.6,490L1645.7,490L1542.9,490L1440,490L1337.1,490L1234.3,490L1131.4,490L1028.6,490L925.7,490L822.9,490L720,490L617.1,490L514.3,490L411.4,490L308.6,490L205.7,490L102.9,490L0,490Z"/></svg>